<?xml version="1.0" encoding="utf-8"?>
<!-- Svg Vector Icons : http://www.onlinewebfonts.com/icon -->
<!DOCTYPE svg PUBLIC "-//W3C//DTD SVG 1.1//EN" "http://www.w3.org/Graphics/SVG/1.1/DTD/svg11.dtd">
<svg version="1.1" xmlns="http://www.w3.org/2000/svg" xmlns:xlink="http://www.w3.org/1999/xlink" x="0px" y="0px" viewBox="0 0 1000 1000" enable-background="new 0 0 1000 1000" xml:space="preserve">
<metadata> Svg Vector Icons : http://www.onlinewebfonts.com/icon </metadata>
<g><path d="M940.2,805L758.8,623.6c40.5-62.2,64.2-136.3,64.2-216.1C823,187.9,645,10,425.5,10C206.1,10,28.1,187.9,28.1,407.5C28.1,627,206.1,805,425.5,805c60.8,0,118.2-14,169.7-38.4l191.7,191.7c42.3,42.3,110.9,42.3,153.3,0C982.5,916,982.5,847.2,940.2,805L940.2,805z M172.6,407.5c0-139.7,113.2-252.9,252.9-252.9c139.7,0,252.9,113.2,252.9,252.9c0,139.7-113.2,252.9-252.9,252.9C285.8,660.4,172.6,547.2,172.6,407.5L172.6,407.5z"/></g>
</svg>